<?xml version="1.0" standalone="no"?>
<!DOCTYPE svg PUBLIC "-//W3C//DTD SVG 20010904//EN"
 "http://www.w3.org/TR/2001/REC-SVG-20010904/DTD/svg10.dtd">
<svg version="1.0" xmlns="http://www.w3.org/2000/svg"
 width="128.000000pt" height="128.000000pt" viewBox="0 0 128.000000 128.000000"
 preserveAspectRatio="xMidYMid meet">

<g transform="translate(0.000000,128.000000) scale(0.100000,-0.100000)"
fill="#000000" stroke="none">
<path d="M333 1235 c-154 -42 -258 -154 -292 -313 -17 -84 -14 -524 4 -596 30
-113 114 -213 223 -264 l57 -27 293 -3 c273 -3 299 -2 360 17 82 25 154 78
205 151 61 88 69 127 74 372 8 336 -14 440 -114 548 -59 64 -124 100 -211 119
-80 17 -533 13 -599 -4z m677 -220 c0 -18 5 -25 20 -25 15 0 20 -7 20 -25 0
-18 5 -25 20 -25 20 0 20 -7 20 -304 l0 -303 -137 -5 c-142 -5 -233 -27 -263
-63 -20 -24 -61 -18 -130 19 l-64 35 27 12 c25 11 31 9 67 -20 l40 -32 0 309
0 308 -39 22 c-67 38 -71 58 -4 23 l61 -33 29 21 c15 11 57 29 93 40 36 11
101 31 145 44 101 31 95 31 95 2z m-522 -54 c47 -24 78 -70 88 -129 l7 -42
-52 0 c-45 0 -51 2 -51 21 0 32 -53 79 -90 79 -38 0 -90 -47 -90 -82 0 -43 28
-66 126 -104 139 -53 184 -100 184 -189 0 -110 -82 -184 -204 -185 -109 0
-190 63 -203 159 l-6 41 51 0 c47 0 51 -2 57 -29 18 -82 152 -104 190 -31 35
68 6 105 -113 144 -44 15 -95 37 -113 49 -116 79 -80 273 59 318 39 12 115 3
160 -20z"/>
<path d="M840 972 c-69 -21 -140 -48 -158 -60 l-32 -23 0 -296 0 -295 35 31
c42 37 72 53 145 76 30 10 79 26 108 37 l52 19 0 275 c0 213 -3 274 -12 273
-7 0 -69 -17 -138 -37z m90 -42 c0 -5 -14 -32 -31 -59 l-30 -50 31 -28 c58
-52 49 -153 -13 -138 -22 6 -25 10 -17 25 15 28 12 48 -11 71 -16 16 -29 20
-55 16 -40 -7 -43 3 -13 45 12 16 19 31 17 34 -3 2 -26 -2 -51 -10 l-47 -14 0
32 c0 31 1 32 93 58 102 29 127 33 127 18z m-76 -203 c8 -13 6 -27 -10 -56
l-21 -39 33 5 c29 5 39 0 69 -30 33 -33 40 -54 35 -102 -3 -30 -18 -40 -92
-64 -74 -25 -92 -20 -122 30 -30 51 -15 122 46 225 34 55 44 61 62 31z m-117
-43 c12 -25 0 -74 -17 -74 -11 0 -28 22 -39 53 -10 24 -8 29 12 37 31 12 31
13 44 -16z"/>
<path d="M805 560 c-15 -16 -17 -26 -9 -47 13 -36 37 -49 70 -38 33 12 46 44
30 76 -16 33 -65 38 -91 9z"/>
<path d="M1008 709 l-3 -261 -128 -46 c-107 -37 -136 -52 -175 -89 -49 -46
-44 -46 23 -1 43 29 154 68 248 87 l57 12 0 280 c0 176 -4 279 -10 279 -6 0
-11 -98 -12 -261z"/>
<path d="M1050 658 l0 -263 -92 -18 c-97 -20 -157 -43 -83 -33 22 3 75 6 118
6 l77 0 0 285 c0 183 -4 285 -10 285 -6 0 -10 -94 -10 -262z"/>
</g>
</svg>
